<?xml version="1.0" standalone="no"?>
<!DOCTYPE svg PUBLIC "-//W3C//DTD SVG 20010904//EN"
 "http://www.w3.org/TR/2001/REC-SVG-20010904/DTD/svg10.dtd">
<svg version="1.0" xmlns="http://www.w3.org/2000/svg"
 width="780.000000pt" height="186.000000pt" viewBox="0 0 780.000000 186.000000"
 preserveAspectRatio="xMidYMid meet">

<g transform="translate(0.000000,186.000000) scale(0.100000,-0.100000)"
fill="#000000" stroke="none">
<path d="M4915 1683 c-122 -14 -280 -37 -330 -49 -318 -77 -449 -261 -366
-511 14 -40 22 -76 18 -79 -3 -4 -41 16 -84 43 -188 121 -420 223 -595 263
-136 31 -316 25 -432 -14 -284 -96 -459 -256 -591 -540 -26 -54 -50 -95 -54
-90 -5 5 -13 43 -20 84 -25 164 -130 310 -285 399 -207 118 -474 153 -666 88
-120 -41 -191 -72 -244 -105 -27 -17 -53 -29 -57 -26 -5 3 -9 31 -9 62 0 154
-116 256 -328 289 -82 13 -119 14 -242 4 -80 -6 -163 -16 -185 -21 -22 -4 -62
-11 -90 -15 -74 -9 -196 -34 -228 -46 -19 -8 -27 -18 -27 -36 0 -21 4 -24 22
-20 64 15 167 37 193 41 369 62 552 60 692 -5 121 -57 160 -147 125 -286 -11
-43 -18 -81 -15 -85 6 -11 41 -10 48 1 9 16 133 100 186 127 83 42 220 83 313
93 108 13 216 0 336 -39 225 -73 360 -212 406 -418 19 -83 25 -264 11 -345 -7
-39 -6 -48 8 -53 9 -4 21 -2 26 3 5 5 25 63 44 129 44 153 80 241 141 346 189
323 513 488 859 437 230 -33 590 -214 798 -401 75 -68 107 -81 107 -43 0 9
-18 47 -40 86 -135 239 -144 384 -30 498 88 88 221 135 475 167 102 13 213 17
515 17 335 -1 407 -3 555 -22 221 -28 318 -45 495 -86 159 -36 212 -46 403
-75 152 -24 187 -25 187 -6 0 30 -51 47 -215 71 -109 15 -243 41 -369 70 -137
32 -443 78 -629 95 -105 9 -754 12 -832 3z"/>
<path d="M5202 1497 c-25 -29 3 -36 168 -42 351 -12 475 -35 975 -177 77 -22
227 -60 334 -84 296 -67 414 -108 672 -233 129 -62 153 -69 165 -50 10 17 -13
34 -131 92 -148 73 -280 128 -395 165 -139 44 -160 49 -330 87 -85 19 -200 48
-255 65 -169 52 -515 138 -617 154 -207 33 -566 47 -586 23z"/>
<path d="M2206 831 c-3 -5 -7 -63 -9 -130 -3 -93 -1 -124 9 -132 11 -9 18 -8
29 1 19 16 22 239 3 258 -14 14 -25 15 -32 3z"/>
</g>
</svg>
