<?xml version="1.0" encoding="utf-8" ?>
<svg baseProfile="tiny" height="100%" version="1.2" width="100%" xmlns="http://www.w3.org/2000/svg" xmlns:ev="http://www.w3.org/2001/xml-events" xmlns:xlink="http://www.w3.org/1999/xlink"
viewBox="0 0 1000 1000"
><defs />
<!-- <path d="M 220,102 219,103 219,123 218,124 219,125 218,126 219,127 219,128 220,129 223,129 224,128 224,122 225,121 225,105 224,104 224,103 223,102" fill="none" stroke="black" stroke-linecap="round" stroke-width="3" /> -->
<!-- <path d="M 521,34 519,36 519,39 520,39 521,40 551,40 552,41 563,41 564,42 572,42 573,43 578,43 579,44 582,44 583,45 588,45 589,46 591,46 592,47 595,47 596,48 600,48 601,49 604,49 605,50 607,50 608,51 611,51 612,52 615,52 616,53 618,53 619,54 622,54 623,55 627,55 628,56 629,56 630,57 634,57 635,58 637,58 638,59 640,59 641,60 644,60 645,61 648,61 649,62 651,62 652,63 654,63 655,64 660,64 661,65 664,65 665,66 669,66 670,67 674,67 675,68 677,68 678,69 682,69 683,70 686,70 687,71 688,71 689,72 692,72 693,73 696,73 697,74 699,74 700,75 702,75 703,76 704,76 705,77 708,77 709,78 710,78 711,79 713,79 714,80 715,80 716,81 717,81 718,82 719,82 720,83 721,83 722,84 724,84 725,85 726,85 727,86 728,86 729,87 730,87 731,88 732,88 733,89 734,89 735,90 736,90 737,91 738,91 739,92 740,92 741,93 743,93 745,95 746,95 747,96 748,96 749,95 751,95 751,92 750,91 749,91 747,89 746,89 745,88 743,88 742,87 741,87 739,85 737,85 736,84 735,84 734,83 733,83 732,82 731,82 730,81 729,81 728,80 727,80 726,79 725,79 724,78 722,78 721,77 720,77 719,76 717,76 716,75 715,75 714,74 713,74 712,73 710,73 709,72 707,72 706,71 705,71 704,70 702,70 701,69 699,69 698,68 696,68 695,67 693,67 692,66 688,66 687,65 685,65 684,64 681,64 680,63 676,63 675,62 674,62 673,61 672,62 671,61 668,61 667,60 662,60 661,59 658,59 657,58 655,58 654,57 651,57 650,56 647,56 646,55 644,55 643,54 641,54 640,53 637,53 636,52 634,52 633,51 630,51 629,50 627,50 626,49 623,49 622,48 620,48 619,47 616,47 615,46 613,46 612,45 609,45 608,44 605,44 604,43 601,43 600,42 596,42 595,41 592,41 591,40 587,40 586,39 582,39 581,38 575,38 574,37 568,37 567,36 557,36 556,35 524,35 523,34 522,35" fill="none" stroke="black" stroke-linecap="round" stroke-width="3" /> -->
<path d="M 501,16 500,17 490,17 489,18 482,18 481,19 472,19 471,20 466,20 465,21 461,21 460,22 457,22 456,23 454,23 453,24 450,24 449,25 448,25 447,26 444,26 443,27 442,27 440,29 438,29 436,31 435,31 433,33 432,33 429,36 428,36 428,37 424,41 424,42 423,43 423,44 422,45 422,46 421,47 421,48 420,49 420,52 419,53 419,66 420,67 420,69 421,70 421,74 422,75 422,76 423,77 423,79 424,80 424,81 423,82 422,81 421,81 420,80 419,80 417,78 416,78 413,75 412,75 411,74 410,74 409,73 408,73 406,71 405,71 404,70 403,70 402,69 401,69 399,67 398,67 397,66 396,66 395,65 394,65 393,64 392,64 391,63 389,63 387,61 385,61 384,60 383,60 382,59 381,59 380,58 378,58 377,57 375,57 374,56 373,56 372,55 370,55 369,54 367,54 366,53 365,53 364,52 361,52 360,51 356,51 355,50 352,50 351,49 344,49 343,48 330,48 329,49 322,49 321,50 317,50 316,51 314,51 313,52 310,52 309,53 308,53 307,54 305,54 304,55 303,55 302,56 300,56 299,57 298,57 297,58 296,58 295,59 294,59 293,60 292,60 289,63 288,63 287,64 286,64 284,66 283,66 278,71 277,71 271,77 271,78 266,83 266,84 264,86 264,87 262,89 262,90 259,93 259,94 258,95 258,96 257,97 257,98 256,99 256,100 255,101 255,102 254,103 254,104 253,105 253,106 252,107 252,109 251,110 251,111 250,112 250,113 248,115 247,114 247,111 246,110 246,106 245,105 245,102 244,101 244,98 243,97 243,95 242,94 242,93 241,92 241,91 240,90 240,89 239,88 239,87 238,86 238,85 235,82 235,81 226,72 225,72 222,69 221,69 220,68 219,68 217,66 216,66 215,65 214,65 213,64 212,64 211,63 210,63 209,62 207,62 206,61 205,61 204,60 201,60 200,59 199,59 198,58 195,58 194,57 192,57 191,56 187,56 186,55 179,55 178,54 168,54 167,55 161,55 160,56 156,56 155,57 151,57 150,58 149,58 148,59 146,59 145,60 142,60 141,61 140,61 139,62 138,62 137,63 135,63 134,64 133,64 131,66 130,66 129,67 128,67 127,68 126,68 124,70 123,70 122,71 121,71 120,70 120,61 119,60 119,57 118,56 118,54 117,53 117,52 115,50 115,49 112,46 111,46 110,45 110,44 109,44 107,42 106,42 105,41 104,41 103,40 102,40 101,39 99,39 98,38 97,38 96,37 93,37 92,36 86,36 85,35 59,35 58,36 52,36 51,37 45,37 44,38 39,38 38,39 31,39 30,40 25,40 24,41 21,41 20,42 17,42 16,43 13,43 12,44 11,44 10,45 10,46 9,47 9,48 11,50 12,49 15,49 16,48 18,48 19,47 22,47 23,46 28,46 29,45 34,45 35,44 41,44 42,43 47,43 48,42 55,42 56,41 61,41 62,40 63,41 64,41 65,40 79,40 80,41 86,41 87,42 91,42 92,43 95,43 96,44 97,44 98,45 100,45 101,46 102,46 104,48 105,48 112,55 112,57 113,58 113,60 114,61 114,71 113,72 113,75 112,76 112,78 111,79 111,83 112,84 114,84 116,82 117,82 120,79 121,79 124,76 125,76 127,74 128,74 129,73 130,73 132,71 133,71 134,70 135,70 136,69 137,69 138,68 139,68 140,67 142,67 143,66 144,66 145,65 147,65 148,64 150,64 151,63 154,63 155,62 158,62 159,61 163,61 164,60 182,60 183,61 187,61 188,62 189,61 190,62 193,62 194,63 196,63 197,64 199,64 200,65 202,65 203,66 205,66 206,67 207,67 208,68 209,68 210,69 211,69 212,70 213,70 214,71 215,71 217,73 218,73 221,76 222,76 231,85 231,86 233,88 233,89 235,91 235,92 236,93 236,94 237,95 237,96 238,97 238,99 239,100 239,102 240,103 240,108 241,109 241,113 242,114 242,139 241,140 241,145 242,146 245,146 245,145 246,144 246,141 247,140 247,138 248,137 248,135 249,134 249,132 250,131 250,128 251,127 251,125 252,124 252,122 253,121 253,119 254,118 254,116 255,115 255,114 256,113 256,111 257,110 257,109 258,108 258,107 259,106 259,105 260,104 260,103 261,102 261,101 262,100 262,99 264,97 264,96 266,94 266,93 268,91 268,90 272,86 272,85 285,72 286,72 290,68 291,68 292,67 293,67 295,65 296,65 297,64 298,64 299,63 300,63 302,61 304,61 305,60 306,60 307,59 309,59 310,58 311,58 312,57 315,57 316,56 318,56 319,55 323,55 324,54 335,54 336,53 337,54 338,53 339,54 350,54 351,55 355,55 356,56 357,56 358,57 361,57 362,58 365,58 366,59 368,59 369,60 370,60 371,61 374,61 376,63 378,63 379,64 380,64 381,65 382,65 383,66 385,66 386,67 387,67 388,68 389,68 390,69 391,69 392,70 393,70 394,71 395,71 397,73 398,73 399,74 400,74 401,75 402,75 403,76 404,76 406,78 407,78 409,80 410,80 412,82 413,82 415,84 416,84 418,86 419,86 422,89 423,89 424,90 424,91 425,91 436,102 437,102 438,101 439,101 439,100 440,99 439,98 439,96 437,94 437,93 436,92 436,91 435,90 435,89 434,88 434,87 433,86 433,85 431,83 431,81 430,80 430,79 429,78 429,77 428,76 428,74 427,73 427,71 426,70 426,69 425,68 425,59 424,58 425,57 425,52 426,51 426,49 427,48 427,47 429,45 429,44 435,38 436,38 439,35 440,35 441,34 442,34 443,33 444,33 445,32 446,32 447,31 448,31 449,30 451,30 452,29 454,29 455,28 458,28 459,27 462,27 463,26 468,26 469,25 473,25 474,24 483,24 484,23 495,23 496,22 563,22 564,23 565,23 566,22 569,22 570,23 578,23 579,24 588,24 589,25 595,25 596,26 602,26 603,27 609,27 610,28 614,28 615,29 621,29 622,30 625,30 626,31 631,31 632,32 633,32 634,33 639,33 640,34 643,34 644,35 647,35 648,36 653,36 654,37 656,37 657,38 662,38 663,39 671,39 672,40 678,40 679,41 683,41 684,42 689,42 690,43 694,43 695,42 695,39 694,38 692,38 691,37 688,37 687,36 683,36 682,35 678,35 677,34 671,34 670,33 663,33 662,32 657,32 656,31 653,31 652,30 649,30 648,29 643,29 642,28 640,28 639,27 635,27 634,26 630,26 629,25 625,25 624,24 622,24 621,23 613,23 612,22 608,22 607,21 601,21 600,20 592,20 591,19 584,19 583,18 574,18 573,17 555,17 554,16 553,16 552,17 549,17 548,16 547,17 523,17 522,16 521,17 520,17 519,16 504,16 503,17 502,16" fill="none" stroke="black" stroke-linecap="round" stroke-width="3" /></svg>